<svg width="682" height="1923" viewBox="0 0 682 1923" fill="none" xmlns="http://www.w3.org/2000/svg">
<path d="M53.6975 1432.79L169.131 1622.82L131.189 1137.29C129.796 1113.71 142.507 1062.95 204.501 1048.55L102.25 608.679L0 1048.55C61.9933 1062.95 74.7049 1113.71 73.3116 1137.29L53.6975 1432.79Z" fill="black"/>
<path d="M53.6975 1432.79L169.131 1622.82L131.189 1137.29C129.796 1113.71 142.507 1062.95 204.501 1048.55L102.25 608.679L0 1048.55C61.9933 1062.95 74.7049 1113.71 73.3116 1137.29L53.6975 1432.79Z" fill="black"/>
<path d="M53.6975 1432.79L169.131 1622.82L131.189 1137.29C129.796 1113.71 142.507 1062.95 204.501 1048.55L102.25 608.679L0 1048.55C61.9933 1062.95 74.7049 1113.71 73.3116 1137.29L53.6975 1432.79Z" fill="black"/>
<path d="M226.687 1736.65L340.513 1922.5L454.339 1736.65L380.384 723.148C381.027 686.278 401.799 612.538 479.741 612.538L340.513 0L201.285 612.538C279.227 612.538 299.999 686.278 300.642 723.148L226.687 1736.65Z" fill="black"/>
<path d="M226.687 1736.65L340.513 1922.5L454.339 1736.65L380.384 723.148C381.027 686.278 401.799 612.538 479.741 612.538L340.513 0L201.285 612.538C279.227 612.538 299.999 686.278 300.642 723.148L226.687 1736.65Z" fill="black"/>
<path d="M226.687 1736.65L340.513 1922.5L454.339 1736.65L380.384 723.148C381.027 686.278 401.799 612.538 479.741 612.538L340.513 0L201.285 612.538C279.227 612.538 299.999 686.278 300.642 723.148L226.687 1736.65Z" fill="black"/>
<path d="M627.33 1432.79L511.896 1622.82L549.838 1137.29C551.232 1113.71 538.52 1062.95 476.527 1048.55L578.777 608.679L681.027 1048.55C619.034 1062.95 606.322 1113.71 607.716 1137.29L627.33 1432.79Z" fill="black"/>
<path d="M627.33 1432.79L511.896 1622.82L549.838 1137.29C551.232 1113.71 538.52 1062.95 476.527 1048.55L578.777 608.679L681.027 1048.55C619.034 1062.95 606.322 1113.71 607.716 1137.29L627.33 1432.79Z" fill="black"/>
<path d="M627.33 1432.79L511.896 1622.82L549.838 1137.29C551.232 1113.71 538.52 1062.95 476.527 1048.55L578.777 608.679L681.027 1048.55C619.034 1062.95 606.322 1113.71 607.716 1137.29L627.33 1432.79Z" fill="black"/>
</svg>
